<svg width="189" height="186" viewBox="0 0 189 186" fill="none" xmlns="http://www.w3.org/2000/svg">
<path fill-rule="evenodd" clip-rule="evenodd" d="M173.074 144.51C183.458 129.233 189 111.272 189 92.8983H141.75C135.409 101.21 126.902 107.713 117.102 111.703C106.31 116.098 94.4345 117.248 82.9775 115.007C71.5205 112.767 60.9966 107.237 52.7365 99.1171C44.4765 90.997 38.8513 80.6515 36.5724 69.3886C34.2935 58.1258 35.4631 46.4516 39.9334 35.8423C44.4037 25.2329 51.9739 16.165 61.6867 9.78511C71.3994 3.40524 82.8186 0 94.5 0C75.8097 0 57.5391 5.44839 41.9986 15.6562C26.4582 25.864 14.3459 40.3727 7.19343 57.3476C0.0409458 74.3226 -1.83047 93.0013 1.81583 111.022C5.46213 129.042 14.4624 145.595 27.6784 158.587C40.8945 171.579 57.7328 180.427 76.064 184.012C94.3952 187.596 113.396 185.756 130.664 178.725C147.931 171.694 162.69 159.787 173.074 144.51Z" fill="#5E2CED"/>
<path fill-rule="evenodd" clip-rule="evenodd" d="M143.775 92.1881C150.287 82.4423 153.763 70.9844 153.763 59.2632C153.763 91.8776 127.417 118.339 94.8465 118.525C102.475 118.481 110.061 116.963 117.178 114.015C128.007 109.53 137.263 101.934 143.775 92.1881ZM94.0901 118.525C90.3626 118.499 86.6285 118.122 82.9376 117.388C71.4416 115.101 60.8819 109.457 52.5938 101.169C63.2289 111.804 77.8873 118.415 94.0901 118.525ZM51.7295 100.286C41.6016 89.7297 35.3439 75.4316 35.2373 59.6724C35.263 63.3999 35.6405 67.134 36.3747 70.8249C38.581 81.9167 43.9129 92.1369 51.7295 100.286ZM94.4993 0V59.2632H153.763C153.763 26.533 127.23 0 94.4993 0Z" fill="white"/>
<path d="M169.78 113.72C169.78 118.143 166.194 121.729 161.771 121.729C157.348 121.729 153.763 118.143 153.763 113.72C153.763 109.297 157.348 105.712 161.771 105.712C166.194 105.712 169.78 109.297 169.78 113.72Z" fill="white"/>
</svg>
