<svg width="32" height="32" viewBox="0 0 32 32" fill="none" xmlns="http://www.w3.org/2000/svg">
<path fill-rule="evenodd" clip-rule="evenodd" d="M24.5169 15.2406C24.4515 15.3468 24.3841 15.4518 24.3147 15.5557C23.2159 17.2002 21.6541 18.482 19.8268 19.2388C17.9996 19.9957 15.9889 20.1938 14.0491 19.8079C12.1093 19.422 10.3275 18.4696 8.92894 17.0711C7.53041 15.6726 6.57801 13.8908 6.19215 11.9509C5.8063 10.0111 6.00433 8.00047 6.76121 6.17321C7.51809 4.34595 8.79981 2.78416 10.4443 1.68535C11.3902 1.05333 12.4317 0.590806 13.5222 0.31189C11.1771 0.536271 9.24844 1.26826 7.11088 2.69653C4.4797 4.45463 2.42894 6.95349 1.21793 9.87711C0.00693264 12.8007 -0.309921 16.0178 0.307443 19.1215C0.924806 22.2252 2.44866 25.0761 4.6863 27.3138C6.92394 29.5514 9.77487 31.0752 12.8786 31.6926C15.9823 32.31 19.1993 31.9931 22.1229 30.7821C25.0466 29.5711 27.5454 27.5204 29.3035 24.8892C30.9123 22.4815 31.8347 19.6868 31.9798 16.8047C32.0034 16.3353 31.6764 15.9302 31.2145 15.8434C29.8081 15.5793 26.7943 15.0884 24.5169 15.2406Z" fill="#5E2CED"/>
<circle cx="27.5" cy="19.5" r="1.5" fill="white"/>
<path d="M25.2323 10.0567C25.2323 8.84313 24.9933 7.64145 24.5288 6.52026C24.0644 5.39907 23.3837 4.38034 22.5256 3.52222C21.6675 2.6641 20.6488 1.9834 19.5276 1.51899C18.4064 1.05458 17.2047 0.815552 15.9911 0.815552V10.0567H25.2323Z" fill="white"/>
</svg>
